<svg width="96" height="17" viewBox="0 0 96 17" fill="none" xmlns="http://www.w3.org/2000/svg">
<path d="M7.04894 3.42705C7.3483 2.50574 8.6517 2.50574 8.95106 3.42705L9.5716 5.33688C9.70547 5.7489 10.0894 6.02786 10.5227 6.02786H12.5308C13.4995 6.02786 13.9023 7.26748 13.1186 7.83688L11.494 9.01722C11.1435 9.27187 10.9968 9.72323 11.1307 10.1353L11.7512 12.0451C12.0506 12.9664 10.9961 13.7325 10.2124 13.1631L8.58778 11.9828C8.2373 11.7281 7.7627 11.7281 7.41221 11.9828L5.78761 13.1631C5.0039 13.7325 3.94942 12.9664 4.24878 12.0451L4.86932 10.1353C5.00319 9.72323 4.85653 9.27186 4.50604 9.01722L2.88144 7.83688C2.09773 7.26748 2.50051 6.02786 3.46923 6.02786H5.47735C5.91057 6.02786 6.29453 5.7489 6.4284 5.33688L7.04894 3.42705Z" fill="#FFC806"/>
<path d="M27.0489 3.42705C27.3483 2.50574 28.6517 2.50574 28.9511 3.42705L29.5716 5.33688C29.7055 5.7489 30.0894 6.02786 30.5227 6.02786H32.5308C33.4995 6.02786 33.9023 7.26748 33.1186 7.83688L31.494 9.01722C31.1435 9.27187 30.9968 9.72323 31.1307 10.1353L31.7512 12.0451C32.0506 12.9664 30.9961 13.7325 30.2124 13.1631L28.5878 11.9828C28.2373 11.7281 27.7627 11.7281 27.4122 11.9828L25.7876 13.1631C25.0039 13.7325 23.9494 12.9664 24.2488 12.0451L24.8693 10.1353C25.0032 9.72323 24.8565 9.27186 24.506 9.01722L22.8814 7.83688C22.0977 7.26748 22.5005 6.02786 23.4692 6.02786H25.4773C25.9106 6.02786 26.2945 5.7489 26.4284 5.33688L27.0489 3.42705Z" fill="#FFC806"/>
<path d="M47.0489 3.42705C47.3483 2.50574 48.6517 2.50574 48.9511 3.42705L49.5716 5.33688C49.7055 5.7489 50.0894 6.02786 50.5227 6.02786H52.5308C53.4995 6.02786 53.9023 7.26748 53.1186 7.83688L51.494 9.01722C51.1435 9.27187 50.9968 9.72323 51.1307 10.1353L51.7512 12.0451C52.0506 12.9664 50.9961 13.7325 50.2124 13.1631L48.5878 11.9828C48.2373 11.7281 47.7627 11.7281 47.4122 11.9828L45.7876 13.1631C45.0039 13.7325 43.9494 12.9664 44.2488 12.0451L44.8693 10.1353C45.0032 9.72323 44.8565 9.27186 44.506 9.01722L42.8814 7.83688C42.0977 7.26748 42.5005 6.02786 43.4692 6.02786H45.4773C45.9106 6.02786 46.2945 5.7489 46.4284 5.33688L47.0489 3.42705Z" fill="#FFC806"/>
<path d="M67.0489 3.42705C67.3483 2.50574 68.6517 2.50574 68.9511 3.42705L69.5716 5.33688C69.7055 5.7489 70.0894 6.02786 70.5227 6.02786H72.5308C73.4995 6.02786 73.9023 7.26748 73.1186 7.83688L71.494 9.01722C71.1435 9.27187 70.9968 9.72323 71.1307 10.1353L71.7512 12.0451C72.0506 12.9664 70.9961 13.7325 70.2124 13.1631L68.5878 11.9828C68.2373 11.7281 67.7627 11.7281 67.4122 11.9828L65.7876 13.1631C65.0039 13.7325 63.9494 12.9664 64.2488 12.0451L64.8693 10.1353C65.0032 9.72323 64.8565 9.27186 64.506 9.01722L62.8814 7.83688C62.0977 7.26748 62.5005 6.02786 63.4692 6.02786H65.4773C65.9106 6.02786 66.2945 5.7489 66.4284 5.33688L67.0489 3.42705Z" fill="#FFC806"/>
<path d="M87.0489 3.42705C87.3483 2.50574 88.6517 2.50574 88.9511 3.42705L89.5716 5.33688C89.7055 5.7489 90.0894 6.02786 90.5227 6.02786H92.5308C93.4995 6.02786 93.9023 7.26748 93.1186 7.83688L91.494 9.01722C91.1435 9.27187 90.9968 9.72323 91.1307 10.1353L91.7512 12.0451C92.0506 12.9664 90.9961 13.7325 90.2124 13.1631L88.5878 11.9828C88.2373 11.7281 87.7627 11.7281 87.4122 11.9828L85.7876 13.1631C85.0039 13.7325 83.9494 12.9664 84.2488 12.0451L84.8693 10.1353C85.0032 9.72323 84.8565 9.27186 84.506 9.01722L82.8814 7.83688C82.0977 7.26748 82.5005 6.02786 83.4692 6.02786H85.4773C85.9106 6.02786 86.2945 5.7489 86.4284 5.33688L87.0489 3.42705Z" fill="#FFC806"/>
</svg>
